# xmcd
#
# Track frame offsets:
#	150
#	11345
#	20440
#	30637
#	43417
#	53272
#	63862
#	73407
#	90954
#	101697
#	110745
#	123520
#	134365
#	146176
#
# Disc length: 2066 seconds
#
# Revision: 0
# Processed by: cddbd v1.4PL0 Copyright (c) Steve Scherf et al.
# Submitted via: dBpowerAMP V4.0
#
DISCID=c208100e
DTITLE=Johnnie Lee Wills and All The Boys - Where There's A Wills There's A Way
DYEAR=1900
DGENRE=Country
TTITLE0=Slush
TTITLE1=I Won't Cry Tomorrow
TTITLE2=This Room Is So Crowded
TTITLE3=Relaxin'
TTITLE4=Stay A Little Longer
TTITLE5=Why Do I
TTITLE6=The Red Dress
TTITLE7=Dusty Skies
TTITLE8=Too Soon to Worry
TTITLE9=Time Changes Everything
TTITLE10=Sweet Moments
TTITLE11=Big Beaver
TTITLE12=Glass Of Pride
TTITLE13=Heart Of A Clown
EXTD=
EXTT0=
EXTT1=
EXTT2=
EXTT3=
EXTT4=
EXTT5=
EXTT6=
EXTT7=
EXTT8=
EXTT9=
EXTT10=
EXTT11=
EXTT12=
EXTT13=
PLAYORDER=
